<svg viewBox="0 0 1000 580" xmlns="http://www.w3.org/2000/svg" role="img" font-family="monospace, sans-serif">
  <title>Plan de Déploiement — Streaming Lab Gantt (100% Terminé)</title>
  <desc>Diagramme de Gantt du projet Streaming Lab d'avril à juillet 2026 — toutes tâches terminées</desc>

  <rect width="1000" height="580" fill="#0d1117"/>

  <text x="500" y="22" fill="#e6edf3" font-size="13" font-weight="bold" text-anchor="middle">Plan de Déploiement — Streaming Lab</text>
  <text x="500" y="38" fill="#3fb950" font-size="10" text-anchor="middle">✅ 100% Terminé — Ynov Campus B3 INFRA · Avril → Juillet 2026</text>

  <!-- Month headers -->
  <rect x="0" y="48" width="220" height="20" fill="#161b22"/>
  <text x="10" y="62" fill="#8b949e" font-size="10" font-weight="bold">Tâche / Responsable</text>

  <rect x="220" y="48" width="114" height="10" fill="#1f2937"/>
  <text x="277" y="57" fill="#6e7681" font-size="8" text-anchor="middle">Avril</text>
  <rect x="334" y="48" width="228" height="10" fill="#1a2535"/>
  <text x="448" y="57" fill="#6e7681" font-size="8" text-anchor="middle">Mai</text>
  <rect x="562" y="48" width="228" height="10" fill="#1f2937"/>
  <text x="676" y="57" fill="#6e7681" font-size="8" text-anchor="middle">Juin</text>
  <rect x="790" y="48" width="170" height="10" fill="#1a2535"/>
  <text x="875" y="57" fill="#6e7681" font-size="8" text-anchor="middle">Juillet</text>

  <!-- Week labels -->
  <rect x="220" y="58" width="740" height="12" fill="#161b22"/>
  <text x="248" y="68" fill="#6e7681" font-size="7.5" text-anchor="middle">S16</text>
  <text x="305" y="68" fill="#6e7681" font-size="7.5" text-anchor="middle">S17</text>
  <text x="362" y="68" fill="#6e7681" font-size="7.5" text-anchor="middle">S18</text>
  <text x="419" y="68" fill="#6e7681" font-size="7.5" text-anchor="middle">S19</text>
  <text x="476" y="68" fill="#6e7681" font-size="7.5" text-anchor="middle">S20</text>
  <text x="533" y="68" fill="#6e7681" font-size="7.5" text-anchor="middle">S21</text>
  <text x="590" y="68" fill="#6e7681" font-size="7.5" text-anchor="middle">S22</text>
  <text x="647" y="68" fill="#6e7681" font-size="7.5" text-anchor="middle">S23</text>
  <text x="704" y="68" fill="#6e7681" font-size="7.5" text-anchor="middle">S24</text>
  <text x="761" y="68" fill="#6e7681" font-size="7.5" text-anchor="middle">S25</text>
  <text x="818" y="68" fill="#6e7681" font-size="7.5" text-anchor="middle">S26</text>
  <text x="875" y="68" fill="#6e7681" font-size="7.5" text-anchor="middle">S27</text>
  <text x="932" y="68" fill="#6e7681" font-size="7.5" text-anchor="middle">S28</text>

  <!-- Vertical grid lines -->
  <line x1="277" y1="70" x2="277" y2="540" stroke="#21262d" stroke-width="0.5"/>
  <line x1="334" y1="70" x2="334" y2="540" stroke="#21262d" stroke-width="0.5"/>
  <line x1="391" y1="70" x2="391" y2="540" stroke="#21262d" stroke-width="0.5"/>
  <line x1="448" y1="70" x2="448" y2="540" stroke="#21262d" stroke-width="0.5"/>
  <line x1="505" y1="70" x2="505" y2="540" stroke="#21262d" stroke-width="0.5"/>
  <line x1="562" y1="70" x2="562" y2="540" stroke="#21262d" stroke-width="0.5"/>
  <line x1="619" y1="70" x2="619" y2="540" stroke="#21262d" stroke-width="0.5"/>
  <line x1="676" y1="70" x2="676" y2="540" stroke="#21262d" stroke-width="0.5"/>
  <line x1="733" y1="70" x2="733" y2="540" stroke="#21262d" stroke-width="0.5"/>
  <line x1="790" y1="70" x2="790" y2="540" stroke="#21262d" stroke-width="0.5"/>
  <line x1="847" y1="70" x2="847" y2="540" stroke="#21262d" stroke-width="0.5"/>
  <line x1="904" y1="70" x2="904" y2="540" stroke="#21262d" stroke-width="0.5"/>
  <line x1="960" y1="70" x2="960" y2="540" stroke="#21262d" stroke-width="0.5"/>

  <!-- Today marker at S28 (Jul 6) -->
  <line x1="960" y1="48" x2="960" y2="540" stroke="#3fb950" stroke-width="1.5" stroke-dasharray="4,3"/>
  <text x="962" y="543" fill="#3fb950" font-size="9">✅ Terminé S28</text>

  <!-- SECTION: PROXMOX / VMs — Quentin -->
  <rect x="0" y="72" width="220" height="14" fill="#1c2128"/>
  <text x="6" y="82" fill="#58a6ff" font-size="9" font-weight="bold">PROXMOX / VMs — Quentin</text>

  <rect x="0" y="88" width="220" height="18" fill="#0d1117"/>
  <text x="6" y="100" fill="#8b949e" font-size="8.5">KAN-29 Installer Proxmox VE 8</text>
  <rect x="220" y="91" width="342" height="12" rx="3" fill="#238636"/>
  <text x="391" y="100" fill="#fff" font-size="7.5" text-anchor="middle">✓ Done · 02 Jun</text>

  <rect x="0" y="108" width="220" height="18" fill="#0d1117"/>
  <text x="6" y="120" fill="#8b949e" font-size="8.5">KAN-30/31/32 Créer VMs (streaming + backup)</text>
  <rect x="220" y="111" width="342" height="12" rx="3" fill="#238636"/>
  <text x="391" y="120" fill="#fff" font-size="7.5" text-anchor="middle">✓ Done · 02 Jun</text>

  <rect x="0" y="128" width="220" height="18" fill="#0d1117"/>
  <text x="6" y="140" fill="#8b949e" font-size="8.5">KAN-33 3 Docker networks</text>
  <rect x="220" y="131" width="342" height="12" rx="3" fill="#238636"/>
  <text x="391" y="140" fill="#fff" font-size="7.5" text-anchor="middle">✓ Done · 02 Jun</text>

  <!-- SECTION: RÉSEAU / SÉCURITÉ — Quentin + Iman -->
  <rect x="0" y="150" width="220" height="14" fill="#1c2128"/>
  <text x="6" y="160" fill="#f85149" font-size="9" font-weight="bold">RÉSEAU / SÉCURITÉ — Quentin + Iman</text>

  <rect x="0" y="166" width="220" height="18" fill="#0d1117"/>
  <text x="6" y="178" fill="#8b949e" font-size="8.5">KAN-22 FortiGate HA · VIP 192.168.1.20</text>
  <rect x="220" y="169" width="740" height="12" rx="3" fill="#238636"/>
  <text x="590" y="178" fill="#fff" font-size="7.5" text-anchor="middle">✓ Done · 06 Jul</text>

  <rect x="0" y="186" width="220" height="18" fill="#0d1117"/>
  <text x="6" y="198" fill="#8b949e" font-size="8.5">KAN-7 HP Switch + VLANs (KAN-23)</text>
  <rect x="220" y="189" width="740" height="12" rx="3" fill="#238636"/>
  <text x="590" y="198" fill="#fff" font-size="7.5" text-anchor="middle">✓ Done · 06 Jul</text>

  <rect x="0" y="206" width="220" height="18" fill="#0d1117"/>
  <text x="6" y="218" fill="#8b949e" font-size="8.5">KAN-24 Policies FortiGate VLAN</text>
  <rect x="220" y="209" width="740" height="12" rx="3" fill="#238636"/>
  <text x="590" y="218" fill="#fff" font-size="7.5" text-anchor="middle">✓ Done · 06 Jul</text>

  <rect x="0" y="226" width="220" height="18" fill="#0d1117"/>
  <text x="6" y="238" fill="#8b949e" font-size="8.5">KAN-27 VPN SSL FortiClient + MFA</text>
  <rect x="220" y="229" width="628" height="12" rx="3" fill="#238636"/>
  <text x="534" y="238" fill="#fff" font-size="7.5" text-anchor="middle">✓ Done · 23 Jun</text>

  <rect x="0" y="246" width="220" height="18" fill="#0d1117"/>
  <text x="6" y="258" fill="#8b949e" font-size="8.5">KAN-25 Cloudflare Zero Trust</text>
  <rect x="220" y="249" width="713" height="12" rx="3" fill="#238636"/>
  <text x="576" y="258" fill="#fff" font-size="7.5" text-anchor="middle">✓ Done · 03 Jul</text>

  <rect x="0" y="266" width="220" height="18" fill="#0d1117"/>
  <text x="6" y="278" fill="#8b949e" font-size="8.5">KAN-28 WPA3 AP Cisco 2802</text>
  <rect x="220" y="269" width="726" height="12" rx="3" fill="#238636"/>
  <text x="583" y="278" fill="#fff" font-size="7.5" text-anchor="middle">✓ Done · 05 Jul</text>

  <!-- SECTION: DOCKER STACKS — Iman -->
  <rect x="0" y="290" width="220" height="14" fill="#1c2128"/>
  <text x="6" y="300" fill="#3fb950" font-size="9" font-weight="bold">DOCKER STACKS — Iman</text>

  <rect x="0" y="306" width="220" height="18" fill="#0d1117"/>
  <text x="6" y="318" fill="#8b949e" font-size="8.5">KAN-34 Traefik v3 + Cloudflare tunnel</text>
  <rect x="220" y="309" width="627" height="12" rx="3" fill="#238636"/>
  <text x="533" y="318" fill="#fff" font-size="7.5" text-anchor="middle">✓ Done · 24 Jun</text>

  <rect x="0" y="326" width="220" height="18" fill="#0d1117"/>
  <text x="6" y="338" fill="#8b949e" font-size="8.5">KAN-35/36/37 Jellyfin + Keycloak OIDC</text>
  <rect x="220" y="329" width="740" height="12" rx="3" fill="#238636"/>
  <text x="590" y="338" fill="#fff" font-size="7.5" text-anchor="middle">✓ Done · 06 Jul</text>

  <rect x="0" y="346" width="220" height="18" fill="#0d1117"/>
  <text x="6" y="358" fill="#8b949e" font-size="8.5">KAN-38 HashiCorp Vault</text>
  <rect x="220" y="349" width="627" height="12" rx="3" fill="#238636"/>
  <text x="533" y="358" fill="#fff" font-size="7.5" text-anchor="middle">✓ Done · 24 Jun</text>

  <rect x="0" y="366" width="220" height="18" fill="#0d1117"/>
  <text x="6" y="378" fill="#8b949e" font-size="8.5">KAN-39/40/42 PostgreSQL HA Patroni + MinIO</text>
  <rect x="220" y="369" width="740" height="12" rx="3" fill="#238636"/>
  <text x="590" y="378" fill="#fff" font-size="7.5" text-anchor="middle">✓ Done · 06 Jul · Timeline 3</text>

  <!-- SECTION: MONITORING / IDS — Adrien -->
  <rect x="0" y="390" width="220" height="14" fill="#1c2128"/>
  <text x="6" y="400" fill="#39d353" font-size="9" font-weight="bold">MONITORING / IDS — Adrien + Iman</text>

  <rect x="0" y="406" width="220" height="18" fill="#0d1117"/>
  <text x="6" y="418" fill="#8b949e" font-size="8.5">KAN-19 Grafana · Prometheus · Loki</text>
  <rect x="220" y="409" width="740" height="12" rx="3" fill="#238636"/>
  <text x="590" y="418" fill="#fff" font-size="7.5" text-anchor="middle">✓ Done · 06 Jul · 7 targets UP</text>

  <rect x="0" y="426" width="220" height="18" fill="#0d1117"/>
  <text x="6" y="438" fill="#8b949e" font-size="8.5">CrowdSec IDS · 6 collections</text>
  <rect x="220" y="429" width="740" height="12" rx="3" fill="#238636"/>
  <text x="590" y="438" fill="#fff" font-size="7.5" text-anchor="middle">✓ Done · 06 Jul · enrollé app.crowdsec.net</text>

  <!-- SECTION: DEVOPS / CI-CD — Iman -->
  <rect x="0" y="450" width="220" height="14" fill="#1c2128"/>
  <text x="6" y="460" fill="#a371f7" font-size="9" font-weight="bold">DEVOPS / CI-CD — Iman</text>

  <rect x="0" y="466" width="220" height="18" fill="#0d1117"/>
  <text x="6" y="478" fill="#8b949e" font-size="8.5">KAN-20 GitHub Actions · Ansible · GitFlow</text>
  <rect x="220" y="469" width="740" height="12" rx="3" fill="#238636"/>
  <text x="590" y="478" fill="#fff" font-size="7.5" text-anchor="middle">✓ Done · 06 Jul · run #28662530761</text>

  <!-- SECTION: DOCUMENTATION — Tous -->
  <rect x="0" y="490" width="220" height="14" fill="#1c2128"/>
  <text x="6" y="500" fill="#d29922" font-size="9" font-weight="bold">DOCUMENTATION — Tous</text>

  <rect x="0" y="506" width="220" height="18" fill="#0d1117"/>
  <text x="6" y="518" fill="#8b949e" font-size="8.5">KAN-21 DAT · PCA/PRA · ITIL · MCD/MLD</text>
  <rect x="220" y="509" width="740" height="12" rx="3" fill="#238636"/>
  <text x="590" y="518" fill="#fff" font-size="7.5" text-anchor="middle">✓ Done · 56 tickets Jira KAN · 100% Terminé</text>

  <!-- Legend -->
  <rect x="220" y="530" width="80" height="10" rx="2" fill="#238636"/>
  <text x="307" y="539" fill="#8b949e" font-size="8"> ✓ Terminé</text>
  <line x1="960" y1="528" x2="960" y2="538" stroke="#3fb950" stroke-width="1.5" stroke-dasharray="3,2"/>
  <text x="966" y="537" fill="#3fb950" font-size="8"> Aujourd'hui (S28 · 06/07/2026)</text>
</svg>
