<svg viewBox="0 0 1000 620" xmlns="http://www.w3.org/2000/svg" role="img" font-family="monospace, sans-serif">
  <title>Plan de Déploiement — Streaming Lab Gantt</title>
  <desc>Diagramme de Gantt du projet Streaming Lab d'avril à juillet 2026</desc>

  <rect width="1000" height="620" fill="#0d1117"/>

  <text x="500" y="24" fill="#e6edf3" font-size="13" font-weight="bold" text-anchor="middle">Plan de Déploiement — Streaming Lab</text>
  <text x="500" y="40" fill="#8b949e" font-size="10" text-anchor="middle">Ynov Campus B3 INFRA · Avril → Juillet 2026</text>

  <rect x="0" y="50" width="220" height="22" fill="#161b22"/>
  <text x="10" y="64" fill="#8b949e" font-size="10" font-weight="bold">Tâche / Responsable</text>

  <rect x="220" y="50" width="114" height="10" fill="#1f2937"/>
  <text x="277" y="59" fill="#6e7681" font-size="8" text-anchor="middle">Avril</text>
  <rect x="334" y="50" width="228" height="10" fill="#1a2535"/>
  <text x="448" y="59" fill="#6e7681" font-size="8" text-anchor="middle">Mai</text>
  <rect x="562" y="50" width="228" height="10" fill="#1f2937"/>
  <text x="676" y="59" fill="#6e7681" font-size="8" text-anchor="middle">Juin</text>
  <rect x="790" y="50" width="170" height="10" fill="#1a2535"/>
  <text x="875" y="59" fill="#6e7681" font-size="8" text-anchor="middle">Juillet</text>

  <rect x="220" y="60" width="740" height="12" fill="#161b22"/>
  <text x="248" y="70" fill="#6e7681" font-size="8" text-anchor="middle">S16</text>
  <text x="305" y="70" fill="#6e7681" font-size="8" text-anchor="middle">S17</text>
  <text x="362" y="70" fill="#6e7681" font-size="8" text-anchor="middle">S18</text>
  <text x="419" y="70" fill="#6e7681" font-size="8" text-anchor="middle">S19</text>
  <text x="476" y="70" fill="#6e7681" font-size="8" text-anchor="middle">S20</text>
  <text x="533" y="70" fill="#6e7681" font-size="8" text-anchor="middle">S21</text>
  <text x="590" y="70" fill="#6e7681" font-size="8" text-anchor="middle">S22</text>
  <text x="647" y="70" fill="#6e7681" font-size="8" text-anchor="middle">S23</text>
  <text x="704" y="70" fill="#6e7681" font-size="8" text-anchor="middle">S24</text>
  <text x="761" y="70" fill="#6e7681" font-size="8" text-anchor="middle">S25</text>
  <text x="818" y="70" fill="#6e7681" font-size="8" text-anchor="middle">S26</text>
  <text x="875" y="70" fill="#6e7681" font-size="8" text-anchor="middle">S27</text>
  <text x="932" y="70" fill="#6e7681" font-size="8" text-anchor="middle">S28</text>

  <line x1="277" y1="72" x2="277" y2="580" stroke="#21262d" stroke-width="0.5"/>
  <line x1="334" y1="72" x2="334" y2="580" stroke="#21262d" stroke-width="0.5"/>
  <line x1="391" y1="72" x2="391" y2="580" stroke="#21262d" stroke-width="0.5"/>
  <line x1="448" y1="72" x2="448" y2="580" stroke="#21262d" stroke-width="0.5"/>
  <line x1="505" y1="72" x2="505" y2="580" stroke="#21262d" stroke-width="0.5"/>
  <line x1="562" y1="72" x2="562" y2="580" stroke="#21262d" stroke-width="0.5"/>
  <line x1="619" y1="72" x2="619" y2="580" stroke="#21262d" stroke-width="0.5"/>
  <line x1="676" y1="72" x2="676" y2="580" stroke="#21262d" stroke-width="0.5"/>
  <line x1="733" y1="72" x2="733" y2="580" stroke="#21262d" stroke-width="0.5"/>
  <line x1="790" y1="72" x2="790" y2="580" stroke="#21262d" stroke-width="0.5"/>
  <line x1="847" y1="72" x2="847" y2="580" stroke="#21262d" stroke-width="0.5"/>
  <line x1="904" y1="72" x2="904" y2="580" stroke="#21262d" stroke-width="0.5"/>
  <line x1="960" y1="72" x2="960" y2="580" stroke="#21262d" stroke-width="0.5"/>

  <line x1="761" y1="50" x2="761" y2="580" stroke="#f85149" stroke-width="1.5" stroke-dasharray="4,3"/>
  <text x="763" y="585" fill="#f85149" font-size="9">Aujourd'hui</text>

  <rect x="0" y="74" width="220" height="14" fill="#1c2128"/>
  <text x="6" y="84" fill="#58a6ff" font-size="9" font-weight="bold">PROXMOX / VMs — Quentin</text>
  <rect x="0" y="90" width="220" height="18" fill="#0d1117"/>
  <text x="6" y="102" fill="#8b949e" font-size="8.5">KAN-29 Installer Proxmox VE 8</text>
  <rect x="220" y="93" width="114" height="12" rx="3" fill="#238636"/>
  <text x="277" y="102" fill="#fff" font-size="7.5" text-anchor="middle">✓ Done</text>
  <rect x="0" y="110" width="220" height="18" fill="#0d1117"/>
  <text x="6" y="122" fill="#8b949e" font-size="8.5">KAN-30/31/32 Créer 3 VMs</text>
  <rect x="277" y="113" width="114" height="12" rx="3" fill="#238636"/>
  <text x="334" y="122" fill="#fff" font-size="7.5" text-anchor="middle">✓ Done</text>
  <rect x="0" y="130" width="220" height="18" fill="#0d1117"/>
  <text x="6" y="142" fill="#8b949e" font-size="8.5">KAN-33 4 Docker networks</text>
  <rect x="334" y="133" width="57" height="12" rx="3" fill="#238636"/>
  <text x="362" y="142" fill="#fff" font-size="7.5" text-anchor="middle">✓</text>

  <rect x="0" y="152" width="220" height="14" fill="#1c2128"/>
  <text x="6" y="162" fill="#f85149" font-size="9" font-weight="bold">RÉSEAU / SÉCURITÉ — Quentin + Iman</text>
  <rect x="0" y="168" width="220" height="18" fill="#0d1117"/>
  <text x="6" y="180" fill="#8b949e" font-size="8.5">KAN-22 FortiGate HA</text>
  <rect x="220" y="171" width="541" height="12" rx="3" fill="#9e6a03" opacity="0.8"/>
  <text x="490" y="180" fill="#fff" font-size="7.5" text-anchor="middle">En cours →</text>
  <rect x="0" y="188" width="220" height="18" fill="#0d1117"/>
  <text x="6" y="200" fill="#8b949e" font-size="8.5">KAN-7 Configurer switch HP</text>
  <rect x="220" y="191" width="541" height="12" rx="3" fill="#9e6a03" opacity="0.8"/>
  <text x="490" y="200" fill="#fff" font-size="7.5" text-anchor="middle">En cours →</text>
  <rect x="0" y="208" width="220" height="18" fill="#0d1117"/>
  <text x="6" y="220" fill="#8b949e" font-size="8.5">KAN-23 VLANs HP</text>
  <rect x="761" y="211" width="114" height="12" rx="3" fill="#1f6feb"/>
  <text x="818" y="220" fill="#fff" font-size="7.5" text-anchor="middle">Planifié</text>
  <rect x="0" y="228" width="220" height="18" fill="#0d1117"/>
  <text x="6" y="240" fill="#8b949e" font-size="8.5">KAN-24 Policies FortiGate VLAN</text>
  <rect x="704" y="231" width="171" height="12" rx="3" fill="#9e6a03" opacity="0.8"/>
  <text x="789" y="240" fill="#fff" font-size="7.5" text-anchor="middle">En cours</text>
  <rect x="0" y="248" width="220" height="18" fill="#0d1117"/>
  <text x="6" y="260" fill="#8b949e" font-size="8.5">KAN-27 VPN SSL + MFA</text>
  <rect x="448" y="251" width="171" height="12" rx="3" fill="#238636"/>
  <text x="533" y="260" fill="#fff" font-size="7.5" text-anchor="middle">✓ Done</text>
  <rect x="0" y="268" width="220" height="18" fill="#0d1117"/>
  <text x="6" y="280" fill="#8b949e" font-size="8.5">KAN-25 Cloudflare Zero Trust</text>
  <rect x="818" y="271" width="114" height="12" rx="3" fill="#1f6feb"/>
  <text x="875" y="280" fill="#fff" font-size="7.5" text-anchor="middle">Planifié</text>

  <rect x="0" y="292" width="220" height="14" fill="#1c2128"/>
  <text x="6" y="302" fill="#3fb950" font-size="9" font-weight="bold">DOCKER STACKS — Iman</text>
  <rect x="0" y="308" width="220" height="18" fill="#0d1117"/>
  <text x="6" y="320" fill="#8b949e" font-size="8.5">KAN-18 BDD + MinIO</text>
  <rect x="334" y="311" width="428" height="12" rx="3" fill="#238636"/>
  <text x="548" y="320" fill="#fff" font-size="7.5" text-anchor="middle">✓ Done</text>
  <rect x="0" y="328" width="220" height="18" fill="#0d1117"/>
  <text x="6" y="340" fill="#8b949e" font-size="8.5">Keycloak + Vault (IAM)</text>
  <rect x="619" y="331" width="285" height="12" rx="3" fill="#1f6feb"/>
  <text x="761" y="340" fill="#fff" font-size="7.5" text-anchor="middle">Planifié</text>
  <rect x="0" y="348" width="220" height="18" fill="#0d1117"/>
  <text x="6" y="360" fill="#8b949e" font-size="8.5">Traefik (proxy + TLS)</text>
  <rect x="676" y="351" width="171" height="12" rx="3" fill="#1f6feb"/>
  <text x="761" y="360" fill="#fff" font-size="7.5" text-anchor="middle">Planifié</text>
  <rect x="0" y="368" width="220" height="18" fill="#0d1117"/>
  <text x="6" y="380" fill="#8b949e" font-size="8.5">Jellyfin (streaming)</text>
  <rect x="733" y="371" width="171" height="12" rx="3" fill="#1f6feb"/>
  <text x="818" y="380" fill="#fff" font-size="7.5" text-anchor="middle">Planifié</text>

  <rect x="0" y="392" width="220" height="14" fill="#1c2128"/>
  <text x="6" y="402" fill="#39d353" font-size="9" font-weight="bold">MONITORING / IDS — Adrien</text>
  <rect x="0" y="408" width="220" height="18" fill="#0d1117"/>
  <text x="6" y="420" fill="#8b949e" font-size="8.5">KAN-19 Grafana+Prometheus+Loki</text>
  <rect x="619" y="411" width="228" height="12" rx="3" fill="#9e6a03" opacity="0.8"/>
  <text x="733" y="420" fill="#fff" font-size="7.5" text-anchor="middle">En cours</text>
  <rect x="0" y="428" width="220" height="18" fill="#0d1117"/>
  <text x="6" y="440" fill="#8b949e" font-size="8.5">Suricata IDS</text>
  <rect x="761" y="431" width="171" height="12" rx="3" fill="#1f6feb"/>
  <text x="847" y="440" fill="#fff" font-size="7.5" text-anchor="middle">Planifié</text>

  <rect x="0" y="452" width="220" height="14" fill="#1c2128"/>
  <text x="6" y="462" fill="#a371f7" font-size="9" font-weight="bold">DEVOPS / CI-CD — Iman</text>
  <rect x="0" y="468" width="220" height="18" fill="#0d1117"/>
  <text x="6" y="480" fill="#8b949e" font-size="8.5">KAN-20 GitHub Actions CI/CD</text>
  <rect x="505" y="471" width="342" height="12" rx="3" fill="#1f6feb"/>
  <text x="676" y="480" fill="#fff" font-size="7.5" text-anchor="middle">Planifié</text>
  <rect x="0" y="488" width="220" height="18" fill="#0d1117"/>
  <text x="6" y="500" fill="#8b949e" font-size="8.5">KAN-10 Kubernetes</text>
  <rect x="904" y="491" width="57" height="12" rx="3" fill="#6e40c9"/>
  <text x="932" y="500" fill="#fff" font-size="7.5" text-anchor="middle">Futur</text>

  <rect x="0" y="512" width="220" height="14" fill="#1c2128"/>
  <text x="6" y="522" fill="#d29922" font-size="9" font-weight="bold">DOCUMENTATION — Tous</text>
  <rect x="0" y="528" width="220" height="18" fill="#0d1117"/>
  <text x="6" y="540" fill="#8b949e" font-size="8.5">KAN-21 DAT, PCA/PRA, ITIL, Green IT</text>
  <rect x="220" y="531" width="740" height="12" rx="3" fill="#5a3e00" opacity="0.85"/>
  <text x="590" y="540" fill="#d29922" font-size="7.5" text-anchor="middle">En continu tout au long du projet</text>

  <rect x="220" y="558" width="80" height="10" rx="2" fill="#238636"/>
  <text x="307" y="567" fill="#8b949e" font-size="8"> Terminé</text>
  <rect x="360" y="558" width="80" height="10" rx="2" fill="#9e6a03"/>
  <text x="447" y="567" fill="#8b949e" font-size="8"> En cours</text>
  <rect x="500" y="558" width="80" height="10" rx="2" fill="#1f6feb"/>
  <text x="587" y="567" fill="#8b949e" font-size="8"> Planifié</text>
  <rect x="640" y="558" width="80" height="10" rx="2" fill="#6e40c9"/>
  <text x="727" y="567" fill="#8b949e" font-size="8"> Futur</text>
  <line x1="780" y1="558" x2="780" y2="568" stroke="#f85149" stroke-width="1.5" stroke-dasharray="3,2"/>
  <text x="787" y="567" fill="#f85149" font-size="8"> Aujourd'hui (S25)</text>
</svg>
