<svg viewBox="0 0 900 1080" xmlns="http://www.w3.org/2000/svg" role="img" font-family="monospace, sans-serif">
  <title>Streaming Lab — Architecture d'Infrastructure (v2.0)</title>
  <desc>Architecture déployée : FortiGate HA, HP Switch, Proxmox VE 8, vm-streaming (20 containers, 3 réseaux Docker), vm-backup Veeam</desc>

  <rect width="900" height="1080" fill="#0d1117"/>

  <!-- Header -->
  <text x="30" y="26" fill="#8b949e" font-size="10">Ynov Campus B3 INFRA · Juillet 2026</text>
  <text x="450" y="26" fill="#e6edf3" font-size="13" font-weight="bold" text-anchor="middle">Streaming Lab — Architecture d'Infrastructure v2.0</text>
  <text x="870" y="26" fill="#3fb950" font-size="10" text-anchor="end">✅ Déployé</text>

  <!-- INTERNET -->
  <rect x="200" y="42" width="500" height="44" rx="6" fill="#21262d" stroke="#444c56" stroke-width="1.5"/>
  <text x="450" y="60" fill="#e6edf3" font-size="12" font-weight="bold" text-anchor="middle">Internet / Utilisateurs</text>
  <text x="450" y="76" fill="#8b949e" font-size="10" text-anchor="middle">Cloudflare Tunnel (sortant) · DNS · TLS 1.3</text>

  <defs>
    <marker id="arr" markerWidth="8" markerHeight="8" refX="6" refY="3" orient="auto">
      <path d="M0,0 L0,6 L8,3 z" fill="#444c56"/>
    </marker>
    <marker id="arr-g" markerWidth="8" markerHeight="8" refX="6" refY="3" orient="auto">
      <path d="M0,0 L0,6 L8,3 z" fill="#238636"/>
    </marker>
    <marker id="arr-o" markerWidth="8" markerHeight="8" refX="6" refY="3" orient="auto">
      <path d="M0,0 L0,6 L8,3 z" fill="#d29922"/>
    </marker>
  </defs>

  <line x1="450" y1="86" x2="450" y2="100" stroke="#444c56" stroke-width="1.5" marker-end="url(#arr)"/>

  <!-- FORTIGATE HA -->
  <rect x="140" y="100" width="620" height="46" rx="6" fill="#2d1f1f" stroke="#f85149" stroke-width="1.5"/>
  <text x="450" y="120" fill="#f85149" font-size="12" font-weight="bold" text-anchor="middle">FortiGate 60F · HA actif/passif · VIP 192.168.1.20</text>
  <text x="450" y="136" fill="#8b949e" font-size="10" text-anchor="middle">Firewall · ACLs inter-VLAN · VPN SSL FortiClient (MFA) · AP Cisco 2802 WPA3-Enterprise</text>
  <text x="450" y="155" fill="#6e7681" font-size="9" text-anchor="middle">⚠ Tunnel Cloudflare initié en sortie — aucun port entrant ouvert</text>

  <line x1="450" y1="162" x2="450" y2="176" stroke="#444c56" stroke-width="1.5" marker-end="url(#arr)"/>

  <!-- HP SWITCH -->
  <rect x="80" y="176" width="740" height="44" rx="6" fill="#1a2535" stroke="#388bfd" stroke-width="1.5"/>
  <text x="450" y="196" fill="#58a6ff" font-size="12" font-weight="bold" text-anchor="middle">HP Switch (SW-01) — 192.168.90.10</text>
  <text x="450" y="212" fill="#8b949e" font-size="10" text-anchor="middle">Trunk 802.1Q · VLAN 10 (Services) · VLAN 20 (DNS) · VLAN 30 (Backup) · VLAN 90 (Management)</text>

  <line x1="450" y1="220" x2="450" y2="234" stroke="#444c56" stroke-width="1.5" marker-end="url(#arr)"/>

  <!-- PROXMOX OUTER BOX -->
  <rect x="30" y="234" width="840" height="794" rx="8" fill="#161b22" stroke="#30363d" stroke-width="1.5"/>
  <text x="450" y="256" fill="#e6edf3" font-size="12" font-weight="bold" text-anchor="middle">Proxmox VE 8 — Dell T140 (PROX-01) — 192.168.90.50 — VLAN 90</text>

  <!-- DNS-01 physical note -->
  <rect x="46" y="268" width="190" height="52" rx="6" fill="#1c2128" stroke="#6e7681" stroke-width="1"/>
  <text x="141" y="287" fill="#8b949e" font-size="10" font-weight="bold" text-anchor="middle">DNS-01 (physique)</text>
  <text x="141" y="301" fill="#6e7681" font-size="9" text-anchor="middle">Raspberry Pi 3B+</text>
  <text x="141" y="314" fill="#6e7681" font-size="9" text-anchor="middle">192.168.20.20 · VLAN 20</text>

  <!-- vm-backup -->
  <rect x="664" y="268" width="190" height="52" rx="6" fill="#2b1f0a" stroke="#d29922" stroke-width="1"/>
  <text x="759" y="287" fill="#d29922" font-size="10" font-weight="bold" text-anchor="middle">vm-backup</text>
  <text x="759" y="301" fill="#8b949e" font-size="9" text-anchor="middle">Veeam Repository</text>
  <text x="759" y="314" fill="#8b949e" font-size="9" text-anchor="middle">192.168.30.2 · VLAN 30</text>

  <!-- Veeam arrow -->
  <line x1="620" y1="600" x2="664" y2="310" stroke="#d29922" stroke-width="1" stroke-dasharray="5,3" marker-end="url(#arr-o)"/>
  <text x="656" y="470" fill="#d29922" font-size="8" text-anchor="end" transform="rotate(-70,656,470)">Veeam Worker AES-256</text>

  <!-- VM-STREAMING BOX -->
  <rect x="46" y="338" width="620" height="672" rx="8" fill="#0d1521" stroke="#1f6feb" stroke-width="1.5"/>
  <text x="356" y="358" fill="#58a6ff" font-size="11" font-weight="bold" text-anchor="middle">vm-streaming — 192.168.10.2 — VLAN 10 — Ubuntu 24.04 — Docker Engine</text>
  <text x="356" y="372" fill="#6e7681" font-size="9" text-anchor="middle">20 conteneurs · 3 réseaux Docker</text>

  <!-- streaming-public -->
  <rect x="62" y="382" width="588" height="160" rx="6" fill="#0d1f12" stroke="#238636" stroke-width="1"/>
  <text x="90" y="398" fill="#3fb950" font-size="10" font-weight="bold">streaming-public (bridge) — Internet via Cloudflare Tunnel → Traefik</text>

  <rect x="70" y="406" width="96" height="46" rx="5" fill="#1c2128" stroke="#3fb950" stroke-width="1"/>
  <text x="118" y="424" fill="#e6edf3" font-size="9.5" font-weight="bold" text-anchor="middle">Traefik v3.3</text>
  <text x="118" y="438" fill="#8b949e" font-size="8.5" text-anchor="middle">Proxy · :80</text>

  <rect x="176" y="406" width="96" height="46" rx="5" fill="#1c2128" stroke="#3fb950" stroke-width="1"/>
  <text x="224" y="424" fill="#e6edf3" font-size="9.5" font-weight="bold" text-anchor="middle">Jellyfin</text>
  <text x="224" y="438" fill="#8b949e" font-size="8.5" text-anchor="middle">Stream · Transcode</text>

  <rect x="282" y="406" width="96" height="46" rx="5" fill="#1c2128" stroke="#3fb950" stroke-width="1"/>
  <text x="330" y="424" fill="#e6edf3" font-size="9.5" font-weight="bold" text-anchor="middle">Keycloak 24</text>
  <text x="330" y="438" fill="#8b949e" font-size="8.5" text-anchor="middle">IAM · SSO · OIDC</text>

  <rect x="388" y="406" width="96" height="46" rx="5" fill="#1c2128" stroke="#3fb950" stroke-width="1"/>
  <text x="436" y="424" fill="#e6edf3" font-size="9.5" font-weight="bold" text-anchor="middle">MinIO</text>
  <text x="436" y="438" fill="#8b949e" font-size="8.5" text-anchor="middle">S3 · db-dumps</text>

  <rect x="494" y="406" width="96" height="46" rx="5" fill="#1c2128" stroke="#3fb950" stroke-width="1"/>
  <text x="542" y="424" fill="#e6edf3" font-size="9.5" font-weight="bold" text-anchor="middle">Vault 1.17</text>
  <text x="542" y="438" fill="#8b949e" font-size="8.5" text-anchor="middle">Secrets · PKI</text>

  <rect x="70" y="460" width="96" height="46" rx="5" fill="#1c2128" stroke="#3fb950" stroke-width="1"/>
  <text x="118" y="478" fill="#e6edf3" font-size="9.5" font-weight="bold" text-anchor="middle">TrivyHub</text>
  <text x="118" y="492" fill="#8b949e" font-size="8.5" text-anchor="middle">CVE Scan</text>

  <rect x="176" y="460" width="96" height="46" rx="5" fill="#1c2128" stroke="#3fb950" stroke-width="1"/>
  <text x="224" y="478" fill="#e6edf3" font-size="9.5" font-weight="bold" text-anchor="middle">CrowdSec</text>
  <text x="224" y="492" fill="#8b949e" font-size="8.5" text-anchor="middle">IDS · 6 collections</text>

  <rect x="282" y="460" width="96" height="46" rx="5" fill="#1c2128" stroke="#3fb950" stroke-width="1"/>
  <text x="330" y="478" fill="#e6edf3" font-size="9.5" font-weight="bold" text-anchor="middle">carto nginx</text>
  <text x="330" y="492" fill="#8b949e" font-size="8.5" text-anchor="middle">carto.duoowatch.com</text>

  <!-- streaming-private -->
  <rect x="62" y="554" width="588" height="120" rx="6" fill="#131520" stroke="#6e40c9" stroke-width="1"/>
  <text x="90" y="570" fill="#a371f7" font-size="10" font-weight="bold">streaming-private (--internal) — Patroni HA Cluster · aucune route Internet</text>
  <text x="90" y="584" fill="#6e40c9" font-size="8.5">Cluster: streaming-postgres · Timeline 3 · 2 failovers prouvés</text>

  <rect x="70" y="592" width="110" height="46" rx="5" fill="#1c2128" stroke="#a371f7" stroke-width="1"/>
  <text x="125" y="610" fill="#e6edf3" font-size="9.5" font-weight="bold" text-anchor="middle">etcd v3.5.17</text>
  <text x="125" y="624" fill="#8b949e" font-size="8.5" text-anchor="middle">DCS · consensus</text>

  <rect x="192" y="592" width="130" height="46" rx="5" fill="#1c2128" stroke="#a371f7" stroke-width="1"/>
  <text x="257" y="610" fill="#e6edf3" font-size="9.5" font-weight="bold" text-anchor="middle">haproxy-postgres</text>
  <text x="257" y="624" fill="#8b949e" font-size="8.5" text-anchor="middle">:5000 Primary · :5001 Replica</text>

  <rect x="334" y="592" width="136" height="46" rx="5" fill="#1c2128" stroke="#a371f7" stroke-width="1.5"/>
  <text x="402" y="608" fill="#a371f7" font-size="9.5" font-weight="bold" text-anchor="middle">postgres-01 ★ Leader</text>
  <text x="402" y="622" fill="#8b949e" font-size="8.5" text-anchor="middle">PostgreSQL 17</text>
  <text x="402" y="634" fill="#3fb950" font-size="7.5" text-anchor="middle">Timeline 3 · running</text>

  <rect x="482" y="592" width="136" height="46" rx="5" fill="#1c2128" stroke="#6e40c9" stroke-width="1"/>
  <text x="550" y="608" fill="#e6edf3" font-size="9.5" font-weight="bold" text-anchor="middle">postgres-02 Replica</text>
  <text x="550" y="622" fill="#8b949e" font-size="8.5" text-anchor="middle">Streaming WAL</text>
  <text x="550" y="634" fill="#3fb950" font-size="7.5" text-anchor="middle">lag 0 · sync async</text>

  <!-- streaming-monitoring -->
  <rect x="62" y="686" width="588" height="148" rx="6" fill="#0f1a1a" stroke="#39d353" stroke-width="1"/>
  <text x="90" y="702" fill="#39d353" font-size="10" font-weight="bold">streaming-monitoring (bridge) — observabilité · 7 targets UP</text>

  <rect x="70" y="712" width="96" height="46" rx="5" fill="#1c2128" stroke="#39d353" stroke-width="1"/>
  <text x="118" y="730" fill="#e6edf3" font-size="9.5" font-weight="bold" text-anchor="middle">Prometheus</text>
  <text x="118" y="744" fill="#8b949e" font-size="8.5" text-anchor="middle">scrape 15s</text>

  <rect x="176" y="712" width="96" height="46" rx="5" fill="#1c2128" stroke="#39d353" stroke-width="1"/>
  <text x="224" y="730" fill="#e6edf3" font-size="9.5" font-weight="bold" text-anchor="middle">Loki 3.0</text>
  <text x="224" y="744" fill="#8b949e" font-size="8.5" text-anchor="middle">Logs agrégés</text>

  <rect x="282" y="712" width="96" height="46" rx="5" fill="#1c2128" stroke="#39d353" stroke-width="1"/>
  <text x="330" y="730" fill="#e6edf3" font-size="9.5" font-weight="bold" text-anchor="middle">Grafana 11</text>
  <text x="330" y="744" fill="#8b949e" font-size="8.5" text-anchor="middle">Dashboards · OIDC</text>

  <rect x="388" y="712" width="96" height="46" rx="5" fill="#1c2128" stroke="#39d353" stroke-width="1"/>
  <text x="436" y="730" fill="#e6edf3" font-size="9.5" font-weight="bold" text-anchor="middle">Alertmanager</text>
  <text x="436" y="744" fill="#8b949e" font-size="8.5" text-anchor="middle">:9093</text>

  <rect x="494" y="712" width="96" height="46" rx="5" fill="#1c2128" stroke="#39d353" stroke-width="1"/>
  <text x="542" y="730" fill="#e6edf3" font-size="9.5" font-weight="bold" text-anchor="middle">Promtail</text>
  <text x="542" y="744" fill="#8b949e" font-size="8.5" text-anchor="middle">Logs Docker</text>

  <rect x="70" y="766" width="96" height="46" rx="5" fill="#1c2128" stroke="#39d353" stroke-width="1"/>
  <text x="118" y="784" fill="#e6edf3" font-size="9.5" font-weight="bold" text-anchor="middle">cAdvisor</text>
  <text x="118" y="798" fill="#8b949e" font-size="8.5" text-anchor="middle">Container metrics</text>

  <rect x="176" y="766" width="136" height="46" rx="5" fill="#1c2128" stroke="#39d353" stroke-width="1"/>
  <text x="244" y="784" fill="#e6edf3" font-size="9.5" font-weight="bold" text-anchor="middle">node-exporter</text>
  <text x="244" y="798" fill="#8b949e" font-size="8.5" text-anchor="middle">VM host metrics</text>

  <rect x="324" y="766" width="150" height="46" rx="5" fill="#1c2128" stroke="#39d353" stroke-width="1"/>
  <text x="399" y="784" fill="#e6edf3" font-size="9.5" font-weight="bold" text-anchor="middle">postgres-exporter</text>
  <text x="399" y="798" fill="#8b949e" font-size="8.5" text-anchor="middle">Patroni + PG metrics</text>

  <!-- LEGEND -->
  <rect x="654" y="338" width="200" height="260" rx="6" fill="#161b22" stroke="#30363d" stroke-width="1"/>
  <text x="754" y="358" fill="#e6edf3" font-size="11" font-weight="bold" text-anchor="middle">Légende</text>

  <rect x="666" y="370" width="14" height="14" rx="2" fill="#21262d" stroke="#444c56" stroke-width="1"/>
  <text x="688" y="382" fill="#8b949e" font-size="10">Infra physique</text>
  <rect x="666" y="394" width="14" height="14" rx="2" fill="#2d1f1f" stroke="#f85149" stroke-width="1"/>
  <text x="688" y="406" fill="#8b949e" font-size="10">FortiGate HA</text>
  <rect x="666" y="418" width="14" height="14" rx="2" fill="#1a2535" stroke="#388bfd" stroke-width="1"/>
  <text x="688" y="430" fill="#8b949e" font-size="10">HP Switch / VLAN</text>
  <rect x="666" y="442" width="14" height="14" rx="2" fill="#0d1521" stroke="#1f6feb" stroke-width="1"/>
  <text x="688" y="454" fill="#8b949e" font-size="10">vm-streaming</text>
  <rect x="666" y="466" width="14" height="14" rx="2" fill="#0d1f12" stroke="#238636" stroke-width="1"/>
  <text x="688" y="478" fill="#8b949e" font-size="10">streaming-public</text>
  <rect x="666" y="490" width="14" height="14" rx="2" fill="#131520" stroke="#6e40c9" stroke-width="1"/>
  <text x="688" y="502" fill="#8b949e" font-size="10">streaming-private</text>
  <rect x="666" y="514" width="14" height="14" rx="2" fill="#0f1a1a" stroke="#39d353" stroke-width="1"/>
  <text x="688" y="526" fill="#8b949e" font-size="10">streaming-monitoring</text>
  <rect x="666" y="538" width="14" height="14" rx="2" fill="#2b1f0a" stroke="#d29922" stroke-width="1"/>
  <text x="688" y="550" fill="#8b949e" font-size="10">vm-backup Veeam</text>
  <rect x="666" y="562" width="14" height="14" rx="2" fill="#1c2128" stroke="#6e7681" stroke-width="1"/>
  <text x="688" y="574" fill="#8b949e" font-size="10">DNS-01 (physique)</text>

  <!-- Footer -->
  <text x="450" y="1066" fill="#8b949e" font-size="10" text-anchor="middle">2 VMs · 20 conteneurs · 3 réseaux Docker · Veeam Worker vm-backup (192.168.30.2 · VLAN 30)</text>
  <text x="450" y="1078" fill="#3fb950" font-size="9" text-anchor="middle">✅ Streaming Lab — Déployé et opérationnel au 06/07/2026</text>
</svg>
