<svg viewBox="0 0 920 520" xmlns="http://www.w3.org/2000/svg" role="img" font-family="monospace, sans-serif">
  <title>Streaming Lab — Project Roadmap (100% Terminé)</title>
  <desc>Roadmap des étapes du projet Streaming Lab — toutes phases terminées au 06/07/2026</desc>

  <defs>
    <marker id="arr-done" markerWidth="10" markerHeight="7" refX="9" refY="3.5" orient="auto">
      <polygon points="0 0, 10 3.5, 0 7" fill="#238636"/>
    </marker>
  </defs>

  <rect width="920" height="520" fill="#0d1117"/>

  <text x="460" y="26" fill="#e6edf3" font-size="15" font-weight="bold" text-anchor="middle">Streaming Lab — Project Roadmap</text>
  <text x="460" y="44" fill="#3fb950" font-size="10" text-anchor="middle">✅ 100% Terminé au 06/07/2026 · Ynov Campus B3 INFRA</text>

  <!-- STEP 1: Proxmox -->
  <rect x="60" y="62" width="180" height="90" rx="8" fill="#0d1f12" stroke="#238636" stroke-width="2"/>
  <text x="150" y="84" fill="#3fb950" font-size="11" font-weight="bold" text-anchor="middle">① Infrastructure</text>
  <text x="150" y="99" fill="#3fb950" font-size="11" font-weight="bold" text-anchor="middle">Proxmox</text>
  <text x="150" y="116" fill="#8b949e" font-size="9" text-anchor="middle">Proxmox VE 8 · Dell T140</text>
  <text x="150" y="130" fill="#8b949e" font-size="9" text-anchor="middle">vm-streaming + vm-backup</text>
  <rect x="68" y="140" width="164" height="6" rx="3" fill="#238636"/>
  <text x="150" y="156" fill="#3fb950" font-size="8" font-weight="bold" text-anchor="middle">✓ Terminé</text>

  <line x1="240" y1="107" x2="318" y2="107" stroke="#238636" stroke-width="1.5" marker-end="url(#arr-done)"/>

  <!-- STEP 2: Réseau -->
  <rect x="320" y="62" width="180" height="90" rx="8" fill="#0d1f12" stroke="#238636" stroke-width="2"/>
  <text x="410" y="84" fill="#3fb950" font-size="11" font-weight="bold" text-anchor="middle">② Réseau &amp;</text>
  <text x="410" y="99" fill="#3fb950" font-size="11" font-weight="bold" text-anchor="middle">Sécurité</text>
  <text x="410" y="116" fill="#8b949e" font-size="9" text-anchor="middle">FortiGate HA · HP Switch</text>
  <text x="410" y="130" fill="#8b949e" font-size="9" text-anchor="middle">VPN SSL MFA · VLANs</text>
  <rect x="328" y="140" width="164" height="6" rx="3" fill="#238636"/>
  <text x="410" y="156" fill="#3fb950" font-size="8" font-weight="bold" text-anchor="middle">✓ Terminé</text>

  <line x1="500" y1="107" x2="578" y2="107" stroke="#238636" stroke-width="1.5" marker-end="url(#arr-done)"/>

  <!-- STEP 3: BDD & Stockage -->
  <rect x="580" y="62" width="180" height="90" rx="8" fill="#0d1f12" stroke="#238636" stroke-width="2"/>
  <text x="670" y="84" fill="#3fb950" font-size="11" font-weight="bold" text-anchor="middle">③ Bases de données</text>
  <text x="670" y="99" fill="#3fb950" font-size="11" font-weight="bold" text-anchor="middle">&amp; Stockage</text>
  <text x="670" y="116" fill="#8b949e" font-size="9" text-anchor="middle">PostgreSQL HA Patroni</text>
  <text x="670" y="130" fill="#8b949e" font-size="9" text-anchor="middle">MinIO S3 · 3 buckets</text>
  <rect x="588" y="140" width="164" height="6" rx="3" fill="#238636"/>
  <text x="670" y="156" fill="#3fb950" font-size="8" font-weight="bold" text-anchor="middle">✓ Terminé</text>

  <line x1="410" y1="158" x2="410" y2="208" stroke="#238636" stroke-width="1.5" marker-end="url(#arr-done)"/>
  <line x1="670" y1="158" x2="670" y2="208" stroke="#238636" stroke-width="1.5" marker-end="url(#arr-done)"/>

  <!-- STEP 4: Services applicatifs -->
  <rect x="320" y="210" width="180" height="90" rx="8" fill="#0d1f12" stroke="#238636" stroke-width="2"/>
  <text x="410" y="232" fill="#3fb950" font-size="11" font-weight="bold" text-anchor="middle">④ Services</text>
  <text x="410" y="247" fill="#3fb950" font-size="11" font-weight="bold" text-anchor="middle">Applicatifs</text>
  <text x="410" y="264" fill="#8b949e" font-size="9" text-anchor="middle">Traefik · Keycloak · Vault</text>
  <text x="410" y="278" fill="#8b949e" font-size="9" text-anchor="middle">Jellyfin · TrivyHub · CrowdSec</text>
  <rect x="328" y="288" width="164" height="6" rx="3" fill="#238636"/>
  <text x="410" y="304" fill="#3fb950" font-size="8" font-weight="bold" text-anchor="middle">✓ Terminé · 20 conteneurs</text>

  <!-- STEP 5: Monitoring -->
  <rect x="580" y="210" width="180" height="90" rx="8" fill="#0d1f12" stroke="#238636" stroke-width="2"/>
  <text x="670" y="232" fill="#3fb950" font-size="11" font-weight="bold" text-anchor="middle">⑤ Monitoring</text>
  <text x="670" y="247" fill="#3fb950" font-size="11" font-weight="bold" text-anchor="middle">&amp; IDS</text>
  <text x="670" y="264" fill="#8b949e" font-size="9" text-anchor="middle">Grafana · Prometheus · Loki</text>
  <text x="670" y="278" fill="#8b949e" font-size="9" text-anchor="middle">CrowdSec · 6 collections</text>
  <rect x="588" y="288" width="164" height="6" rx="3" fill="#238636"/>
  <text x="670" y="304" fill="#3fb950" font-size="8" font-weight="bold" text-anchor="middle">✓ Terminé · 7 targets UP</text>

  <path d="M150 158 Q150 255 318 255" fill="none" stroke="#238636" stroke-width="1.5" stroke-dasharray="5,3" marker-end="url(#arr-done)"/>
  <line x1="500" y1="255" x2="578" y2="255" stroke="#238636" stroke-width="1.5" marker-end="url(#arr-done)"/>
  <line x1="410" y1="308" x2="410" y2="358" stroke="#238636" stroke-width="1.5" marker-end="url(#arr-done)"/>
  <line x1="580" y1="305" x2="503" y2="358" stroke="#238636" stroke-width="1.5" marker-end="url(#arr-done)"/>

  <!-- STEP 6: DevOps / CI-CD -->
  <rect x="320" y="360" width="180" height="90" rx="8" fill="#0d1f12" stroke="#238636" stroke-width="2"/>
  <text x="410" y="382" fill="#3fb950" font-size="11" font-weight="bold" text-anchor="middle">⑥ DevOps</text>
  <text x="410" y="397" fill="#3fb950" font-size="11" font-weight="bold" text-anchor="middle">CI / CD</text>
  <text x="410" y="414" fill="#8b949e" font-size="9" text-anchor="middle">GitHub Actions · Ansible</text>
  <text x="410" y="428" fill="#8b949e" font-size="9" text-anchor="middle">GitFlow · MCD/MLD · Jira KAN</text>
  <rect x="328" y="438" width="164" height="6" rx="3" fill="#238636"/>
  <text x="410" y="454" fill="#3fb950" font-size="8" font-weight="bold" text-anchor="middle">✓ Terminé · 56 tickets</text>

  <line x1="500" y1="405" x2="578" y2="405" stroke="#238636" stroke-width="1.5" marker-end="url(#arr-done)"/>

  <!-- STEP 7: Documentation & ITIL -->
  <rect x="580" y="360" width="180" height="90" rx="8" fill="#0d1f12" stroke="#238636" stroke-width="2"/>
  <text x="670" y="382" fill="#3fb950" font-size="11" font-weight="bold" text-anchor="middle">⑦ Documentation</text>
  <text x="670" y="397" fill="#3fb950" font-size="11" font-weight="bold" text-anchor="middle">&amp; ITIL</text>
  <text x="670" y="414" fill="#8b949e" font-size="9" text-anchor="middle">DAT · PCA/PRA · RFC · BIA</text>
  <text x="670" y="428" fill="#8b949e" font-size="9" text-anchor="middle">Charte · Risques · ISO 27005</text>
  <rect x="588" y="438" width="164" height="6" rx="3" fill="#238636"/>
  <text x="670" y="454" fill="#3fb950" font-size="8" font-weight="bold" text-anchor="middle">✓ Terminé au 06/07/2026</text>

  <!-- LEGEND -->
  <rect x="60" y="350" width="200" height="100" rx="6" fill="#161b22" stroke="#30363d" stroke-width="1"/>
  <text x="160" y="370" fill="#e6edf3" font-size="10" font-weight="bold" text-anchor="middle">Légende</text>
  <rect x="75" y="378" width="30" height="10" rx="3" fill="#0d1f12" stroke="#238636" stroke-width="2"/>
  <text x="115" y="387" fill="#8b949e" font-size="9">✓ Terminé</text>
  <rect x="75" y="396" width="30" height="6" rx="3" fill="#238636"/>
  <text x="115" y="402" fill="#8b949e" font-size="9">Barre de progression</text>
  <text x="160" y="440" fill="#3fb950" font-size="10" font-weight="bold" text-anchor="middle">7 / 7 phases ✅</text>

  <!-- Footer -->
  <text x="460" y="500" fill="#8b949e" font-size="9" text-anchor="middle">Streaming Lab · Ynov Campus B3 INFRA · 100% déployé · 2 VMs · 20 conteneurs · 3 réseaux Docker</text>
  <text x="460" y="513" fill="#3fb950" font-size="9" text-anchor="middle">Patroni HA timeline 3 · Restore Test #001 ✅ · CrowdSec 6 collections · CI/CD run #28662530761 · Jira KAN 56 tickets</text>
</svg>
