<svg viewBox="0 0 920 540" xmlns="http://www.w3.org/2000/svg" role="img" font-family="monospace, sans-serif">
  <title>Streaming Lab — Project Roadmap</title>
  <desc>Roadmap des étapes du projet Streaming Lab avec dépendances</desc>

  <defs>
    <marker id="arr" markerWidth="10" markerHeight="7" refX="9" refY="3.5" orient="auto">
      <polygon points="0 0, 10 3.5, 0 7" fill="#444c56"/>
    </marker>
    <marker id="arr-done" markerWidth="10" markerHeight="7" refX="9" refY="3.5" orient="auto">
      <polygon points="0 0, 10 3.5, 0 7" fill="#238636"/>
    </marker>
    <marker id="arr-prog" markerWidth="10" markerHeight="7" refX="9" refY="3.5" orient="auto">
      <polygon points="0 0, 10 3.5, 0 7" fill="#9e6a03"/>
    </marker>
    <marker id="arr-plan" markerWidth="10" markerHeight="7" refX="9" refY="3.5" orient="auto">
      <polygon points="0 0, 10 3.5, 0 7" fill="#1f6feb"/>
    </marker>
  </defs>

  <rect width="920" height="540" fill="#0d1117"/>

  <text x="460" y="28" fill="#e6edf3" font-size="15" font-weight="bold" text-anchor="middle">Streaming Lab — Project Roadmap</text>
  <text x="460" y="46" fill="#8b949e" font-size="10" text-anchor="middle">Ynov Campus B3 INFRA</text>

  <!-- STEP 1: Proxmox -->
  <rect x="60" y="70" width="180" height="90" rx="8" fill="#161b22" stroke="#238636" stroke-width="2"/>
  <text x="150" y="92" fill="#3fb950" font-size="11" font-weight="bold" text-anchor="middle">① Infrastructure</text>
  <text x="150" y="107" fill="#3fb950" font-size="11" font-weight="bold" text-anchor="middle">Proxmox</text>
  <text x="150" y="124" fill="#8b949e" font-size="9" text-anchor="middle">Proxmox VE 8 · 3 VMs</text>
  <text x="150" y="138" fill="#8b949e" font-size="9" text-anchor="middle">4 Docker networks</text>
  <rect x="68" y="148" width="164" height="6" rx="3" fill="#238636" opacity="0.3"/>
  <rect x="68" y="148" width="164" height="6" rx="3" fill="#238636"/>
  <text x="150" y="157" fill="#3fb950" font-size="8" text-anchor="middle">✓ Terminé</text>

  <line x1="240" y1="115" x2="318" y2="115" stroke="#238636" stroke-width="1.5" marker-end="url(#arr-done)"/>

  <!-- STEP 2: Réseau -->
  <rect x="320" y="70" width="180" height="90" rx="8" fill="#161b22" stroke="#9e6a03" stroke-width="2"/>
  <text x="410" y="92" fill="#d29922" font-size="11" font-weight="bold" text-anchor="middle">② Réseau &amp;</text>
  <text x="410" y="107" fill="#d29922" font-size="11" font-weight="bold" text-anchor="middle">Sécurité</text>
  <text x="410" y="124" fill="#8b949e" font-size="9" text-anchor="middle">FortiGate HA · VLANs</text>
  <text x="410" y="138" fill="#8b949e" font-size="9" text-anchor="middle">VPN SSL · MFA · Switch HP</text>
  <rect x="328" y="148" width="164" height="6" rx="3" fill="#9e6a03" opacity="0.3"/>
  <rect x="328" y="148" width="100" height="6" rx="3" fill="#9e6a03"/>
  <text x="410" y="157" fill="#d29922" font-size="8" text-anchor="middle">En cours</text>

  <line x1="500" y1="115" x2="578" y2="115" stroke="#9e6a03" stroke-width="1.5" marker-end="url(#arr-prog)"/>

  <!-- STEP 3: BDD & Stockage -->
  <rect x="580" y="70" width="180" height="90" rx="8" fill="#161b22" stroke="#238636" stroke-width="2"/>
  <text x="670" y="92" fill="#3fb950" font-size="11" font-weight="bold" text-anchor="middle">③ Bases de données</text>
  <text x="670" y="107" fill="#3fb950" font-size="11" font-weight="bold" text-anchor="middle">&amp; Stockage</text>
  <text x="670" y="124" fill="#8b949e" font-size="9" text-anchor="middle">PostgreSQL · MongoDB · Redis</text>
  <text x="670" y="138" fill="#8b949e" font-size="9" text-anchor="middle">MinIO S3</text>
  <rect x="588" y="148" width="164" height="6" rx="3" fill="#238636" opacity="0.3"/>
  <rect x="588" y="148" width="164" height="6" rx="3" fill="#238636"/>
  <text x="670" y="157" fill="#3fb950" font-size="8" text-anchor="middle">✓ Terminé</text>

  <line x1="410" y1="165" x2="410" y2="223" stroke="#9e6a03" stroke-width="1.5" marker-end="url(#arr-prog)"/>
  <line x1="670" y1="165" x2="670" y2="223" stroke="#238636" stroke-width="1.5" marker-end="url(#arr-done)"/>

  <!-- STEP 4: Services applicatifs -->
  <rect x="320" y="225" width="180" height="90" rx="8" fill="#161b22" stroke="#1f6feb" stroke-width="2"/>
  <text x="410" y="247" fill="#58a6ff" font-size="11" font-weight="bold" text-anchor="middle">④ Services</text>
  <text x="410" y="262" fill="#58a6ff" font-size="11" font-weight="bold" text-anchor="middle">Applicatifs</text>
  <text x="410" y="279" fill="#8b949e" font-size="9" text-anchor="middle">Traefik · Keycloak · Vault</text>
  <text x="410" y="293" fill="#8b949e" font-size="9" text-anchor="middle">Jellyfin</text>
  <rect x="328" y="303" width="164" height="6" rx="3" fill="#1f6feb" opacity="0.3"/>
  <rect x="328" y="303" width="40" height="6" rx="3" fill="#1f6feb"/>
  <text x="410" y="312" fill="#58a6ff" font-size="8" text-anchor="middle">Planifié</text>

  <!-- STEP 5: Monitoring -->
  <rect x="580" y="225" width="180" height="90" rx="8" fill="#161b22" stroke="#9e6a03" stroke-width="2"/>
  <text x="670" y="247" fill="#d29922" font-size="11" font-weight="bold" text-anchor="middle">⑤ Monitoring</text>
  <text x="670" y="262" fill="#d29922" font-size="11" font-weight="bold" text-anchor="middle">&amp; IDS</text>
  <text x="670" y="279" fill="#8b949e" font-size="9" text-anchor="middle">Grafana · Prometheus · Loki</text>
  <text x="670" y="293" fill="#8b949e" font-size="9" text-anchor="middle">Suricata</text>
  <rect x="588" y="303" width="164" height="6" rx="3" fill="#9e6a03" opacity="0.3"/>
  <rect x="588" y="303" width="80" height="6" rx="3" fill="#9e6a03"/>
  <text x="670" y="312" fill="#d29922" font-size="8" text-anchor="middle">En cours</text>

  <path d="M150 160 Q150 270 318 270" fill="none" stroke="#238636" stroke-width="1.5" stroke-dasharray="5,3" marker-end="url(#arr-done)"/>
  <line x1="500" y1="270" x2="578" y2="270" stroke="#1f6feb" stroke-width="1.5" marker-end="url(#arr-plan)"/>
  <line x1="410" y1="320" x2="410" y2="378" stroke="#1f6feb" stroke-width="1.5" marker-end="url(#arr-plan)"/>
  <line x1="580" y1="315" x2="503" y2="378" stroke="#9e6a03" stroke-width="1.5" marker-end="url(#arr-plan)"/>

  <!-- STEP 6: DevOps / CI-CD -->
  <rect x="320" y="380" width="180" height="90" rx="8" fill="#161b22" stroke="#1f6feb" stroke-width="2"/>
  <text x="410" y="402" fill="#58a6ff" font-size="11" font-weight="bold" text-anchor="middle">⑥ DevOps</text>
  <text x="410" y="417" fill="#58a6ff" font-size="11" font-weight="bold" text-anchor="middle">CI / CD</text>
  <text x="410" y="434" fill="#8b949e" font-size="9" text-anchor="middle">GitHub Actions · Ansible</text>
  <text x="410" y="448" fill="#8b949e" font-size="9" text-anchor="middle">IaC · Makefile</text>
  <rect x="328" y="458" width="164" height="6" rx="3" fill="#1f6feb" opacity="0.3"/>
  <rect x="328" y="458" width="30" height="6" rx="3" fill="#1f6feb"/>
  <text x="410" y="467" fill="#58a6ff" font-size="8" text-anchor="middle">Planifié</text>

  <line x1="500" y1="425" x2="578" y2="425" stroke="#1f6feb" stroke-width="1.5" marker-end="url(#arr-plan)"/>

  <!-- STEP 7: Documentation -->
  <rect x="580" y="380" width="180" height="90" rx="8" fill="#161b22" stroke="#d29922" stroke-width="2" stroke-dasharray="6,3"/>
  <text x="670" y="402" fill="#d29922" font-size="11" font-weight="bold" text-anchor="middle">⑦ Documentation</text>
  <text x="670" y="417" fill="#d29922" font-size="11" font-weight="bold" text-anchor="middle">&amp; ITIL</text>
  <text x="670" y="434" fill="#8b949e" font-size="9" text-anchor="middle">DAT · PCA · RFC · Green IT</text>
  <text x="670" y="448" fill="#8b949e" font-size="9" text-anchor="middle">Charte · Comparatif</text>
  <rect x="588" y="458" width="164" height="6" rx="3" fill="#d29922" opacity="0.3"/>
  <rect x="588" y="458" width="120" height="6" rx="3" fill="#d29922"/>
  <text x="670" y="467" fill="#d29922" font-size="8" text-anchor="middle">En continu</text>

  <line x1="410" y1="470" x2="410" y2="493" stroke="#6e40c9" stroke-width="1.5" stroke-dasharray="4,3" marker-end="url(#arr-plan)"/>

  <!-- STEP 8: Kubernetes -->
  <rect x="320" y="495" width="180" height="38" rx="8" fill="#161b22" stroke="#6e40c9" stroke-width="1.5" stroke-dasharray="5,3"/>
  <text x="410" y="514" fill="#a371f7" font-size="10" font-weight="bold" text-anchor="middle">⑧ Kubernetes</text>
  <text x="410" y="527" fill="#6e40c9" font-size="8.5" text-anchor="middle">Migration orchestration · Futur</text>

  <!-- LEGEND -->
  <rect x="60" y="370" width="200" height="120" rx="6" fill="#161b22" stroke="#30363d" stroke-width="1"/>
  <text x="160" y="388" fill="#e6edf3" font-size="10" font-weight="bold" text-anchor="middle">Légende</text>
  <rect x="75" y="396" width="30" height="10" rx="3" fill="#161b22" stroke="#238636" stroke-width="1.5"/>
  <text x="115" y="405" fill="#8b949e" font-size="9">Terminé</text>
  <rect x="75" y="413" width="30" height="10" rx="3" fill="#161b22" stroke="#9e6a03" stroke-width="1.5"/>
  <text x="115" y="422" fill="#8b949e" font-size="9">En cours</text>
  <rect x="75" y="430" width="30" height="10" rx="3" fill="#161b22" stroke="#1f6feb" stroke-width="1.5"/>
  <text x="115" y="439" fill="#8b949e" font-size="9">Planifié</text>
  <rect x="75" y="447" width="30" height="10" rx="3" fill="#161b22" stroke="#d29922" stroke-width="1.5" stroke-dasharray="4,2"/>
  <text x="115" y="456" fill="#8b949e" font-size="9">Continu</text>
  <rect x="75" y="464" width="30" height="10" rx="3" fill="#161b22" stroke="#6e40c9" stroke-width="1.5" stroke-dasharray="4,2"/>
  <text x="115" y="473" fill="#8b949e" font-size="9">Futur</text>
</svg>
